<?xml version="1.0" encoding="UTF-8" standalone="no"?>
<!DOCTYPE svg PUBLIC "-//W3C//DTD SVG 1.1//EN"
 "http://www.w3.org/Graphics/SVG/1.1/DTD/svg11.dtd">
<!-- Generated by graphviz version 2.44.1 (20200629.0846)
 -->
<!-- Title: dependencies Pages: 1 -->
<svg width="2332pt" height="284pt"
 viewBox="0.00 0.00 2332.00 284.00" xmlns="http://www.w3.org/2000/svg" xmlns:xlink="http://www.w3.org/1999/xlink">
<g id="graph0" class="graph" transform="scale(1 1) rotate(0) translate(4 280)">
<title>dependencies</title>
<polygon fill="white" stroke="transparent" points="-4,4 -4,-280 2328,-280 2328,4 -4,4"/>
<text text-anchor="start" x="1141.01" y="-42.4" font-family="sans-serif" font-weight="bold" font-size="14.00">Legend</text>
<polygon fill="#ffffb3" stroke="transparent" points="928,-10 928,-30 948,-30 948,-10 928,-10"/>
<text text-anchor="start" x="951.63" y="-15.4" font-family="sans-serif" font-size="14.00"> &#160;Declarations</text>
<polygon fill="#8dd3c7" stroke="transparent" points="1041,-10 1041,-30 1061,-30 1061,-10 1041,-10"/>
<text text-anchor="start" x="1064.73" y="-15.4" font-family="sans-serif" font-size="14.00"> &#160;Module</text>
<polygon fill="#80b1d3" stroke="transparent" points="1127,-10 1127,-30 1147,-30 1147,-10 1127,-10"/>
<text text-anchor="start" x="1150.78" y="-15.4" font-family="sans-serif" font-size="14.00"> &#160;Bootstrap</text>
<polygon fill="#fdb462" stroke="transparent" points="1224,-10 1224,-30 1244,-30 1244,-10 1224,-10"/>
<text text-anchor="start" x="1247.67" y="-15.4" font-family="sans-serif" font-size="14.00"> &#160;Providers</text>
<polygon fill="#fb8072" stroke="transparent" points="1320,-10 1320,-30 1340,-30 1340,-10 1320,-10"/>
<text text-anchor="start" x="1343.73" y="-15.4" font-family="sans-serif" font-size="14.00"> &#160;Exports</text>
<g id="clust1" class="cluster">
<title>cluster_AppModule</title>
<polygon fill="none" stroke="black" stroke-dasharray="1,5" points="8,-70 8,-268 2316,-268 2316,-70 8,-70"/>
</g>
<g id="clust11" class="cluster">
<title>cluster_AppModule_bootstrap</title>
<polygon fill="none" stroke="black" points="1044,-208 1044,-260 1168,-260 1168,-208 1044,-208"/>
</g>
<g id="clust12" class="cluster">
<title>cluster_AppModule_providers</title>
<polygon fill="none" stroke="black" points="1357,-78 1357,-130 2308,-130 2308,-78 1357,-78"/>
</g>
<g id="clust9" class="cluster">
<title>cluster_AppModule_imports</title>
<polygon fill="none" stroke="black" points="1034,-78 1034,-130 1349,-130 1349,-78 1034,-78"/>
</g>
<g id="clust2" class="cluster">
<title>cluster_AppModule_declarations</title>
<polygon fill="none" stroke="black" points="16,-78 16,-130 1026,-130 1026,-78 16,-78"/>
</g>
<!-- AppComponent -->
<g id="node1" class="node">
<title>AppComponent</title>
<polygon fill="#ffffb3" stroke="black" points="1017.94,-122 912.06,-122 912.06,-86 1017.94,-86 1017.94,-122"/>
<text text-anchor="middle" x="965" y="-99.8" font-family="Times,serif" font-size="14.00">AppComponent</text>
</g>
<!-- AppModule -->
<g id="node7" class="node">
<title>AppModule</title>
<polygon fill="#8dd3c7" stroke="black" points="1147.66,-187 1144.66,-191 1123.66,-191 1120.66,-187 1064.34,-187 1064.34,-151 1147.66,-151 1147.66,-187"/>
<text text-anchor="middle" x="1106" y="-164.8" font-family="Times,serif" font-size="14.00">AppModule</text>
</g>
<!-- AppComponent&#45;&gt;AppModule -->
<g id="edge1" class="edge">
<title>AppComponent&#45;&gt;AppModule</title>
<path fill="none" stroke="black" d="M965,-122.24C965,-137.57 965,-157 965,-157 965,-157 1054.08,-157 1054.08,-157"/>
<polygon fill="black" stroke="black" points="1054.08,-160.5 1064.08,-157 1054.08,-153.5 1054.08,-160.5"/>
</g>
<!-- EmailDialogComponent -->
<g id="node2" class="node">
<title>EmailDialogComponent</title>
<polygon fill="#ffffb3" stroke="black" points="894.37,-122 741.63,-122 741.63,-86 894.37,-86 894.37,-122"/>
<text text-anchor="middle" x="818" y="-99.8" font-family="Times,serif" font-size="14.00">EmailDialogComponent</text>
</g>
<!-- EmailDialogComponent&#45;&gt;AppModule -->
<g id="edge2" class="edge">
<title>EmailDialogComponent&#45;&gt;AppModule</title>
<path fill="none" stroke="black" d="M818,-122.03C818,-139.06 818,-162 818,-162 818,-162 1054.12,-162 1054.12,-162"/>
<polygon fill="black" stroke="black" points="1054.12,-165.5 1064.12,-162 1054.12,-158.5 1054.12,-165.5"/>
</g>
<!-- MainComponent -->
<g id="node3" class="node">
<title>MainComponent</title>
<polygon fill="#ffffb3" stroke="black" points="723.38,-122 612.62,-122 612.62,-86 723.38,-86 723.38,-122"/>
<text text-anchor="middle" x="668" y="-99.8" font-family="Times,serif" font-size="14.00">MainComponent</text>
</g>
<!-- MainComponent&#45;&gt;AppModule -->
<g id="edge3" class="edge">
<title>MainComponent&#45;&gt;AppModule</title>
<path fill="none" stroke="black" d="M668,-122.22C668,-140.83 668,-167 668,-167 668,-167 1054,-167 1054,-167"/>
<polygon fill="black" stroke="black" points="1054,-170.5 1064,-167 1054,-163.5 1054,-170.5"/>
</g>
<!-- NewISOComponent -->
<g id="node4" class="node">
<title>NewISOComponent</title>
<polygon fill="#ffffb3" stroke="black" points="594.31,-122 463.69,-122 463.69,-86 594.31,-86 594.31,-122"/>
<text text-anchor="middle" x="529" y="-99.8" font-family="Times,serif" font-size="14.00">NewISOComponent</text>
</g>
<!-- NewISOComponent&#45;&gt;AppModule -->
<g id="edge4" class="edge">
<title>NewISOComponent&#45;&gt;AppModule</title>
<path fill="none" stroke="black" d="M529,-122.22C529,-142.37 529,-172 529,-172 529,-172 1054.04,-172 1054.04,-172"/>
<polygon fill="black" stroke="black" points="1054.04,-175.5 1064.04,-172 1054.04,-168.5 1054.04,-175.5"/>
</g>
<!-- PreselectionComponent -->
<g id="node5" class="node">
<title>PreselectionComponent</title>
<polygon fill="#ffffb3" stroke="black" points="445.75,-122 296.25,-122 296.25,-86 445.75,-86 445.75,-122"/>
<text text-anchor="middle" x="371" y="-99.8" font-family="Times,serif" font-size="14.00">PreselectionComponent</text>
</g>
<!-- PreselectionComponent&#45;&gt;AppModule -->
<g id="edge5" class="edge">
<title>PreselectionComponent&#45;&gt;AppModule</title>
<path fill="none" stroke="black" d="M371,-122.04C371,-143.66 371,-177 371,-177 371,-177 1054.11,-177 1054.11,-177"/>
<polygon fill="black" stroke="black" points="1054.11,-180.5 1064.11,-177 1054.11,-173.5 1054.11,-180.5"/>
</g>
<!-- SendMaskConfirmationDialogComponent -->
<g id="node6" class="node">
<title>SendMaskConfirmationDialogComponent</title>
<polygon fill="#ffffb3" stroke="black" points="277.97,-122 24.03,-122 24.03,-86 277.97,-86 277.97,-122"/>
<text text-anchor="middle" x="151" y="-99.8" font-family="Times,serif" font-size="14.00">SendMaskConfirmationDialogComponent</text>
</g>
<!-- SendMaskConfirmationDialogComponent&#45;&gt;AppModule -->
<g id="edge6" class="edge">
<title>SendMaskConfirmationDialogComponent&#45;&gt;AppModule</title>
<path fill="none" stroke="black" d="M151,-122.09C151,-145.13 151,-182 151,-182 151,-182 1054.04,-182 1054.04,-182"/>
<polygon fill="black" stroke="black" points="1054.04,-185.5 1064.04,-182 1054.04,-178.5 1054.04,-185.5"/>
</g>
<!-- AppComponent  -->
<g id="node10" class="node">
<title>AppComponent </title>
<polygon fill="#80b1d3" stroke="black" points="1160.44,-252 1051.56,-252 1051.56,-216 1160.44,-216 1160.44,-252"/>
<text text-anchor="middle" x="1106" y="-229.8" font-family="Times,serif" font-size="14.00">AppComponent </text>
</g>
<!-- AppModule&#45;&gt;AppComponent  -->
<g id="edge10" class="edge">
<title>AppModule&#45;&gt;AppComponent </title>
<path fill="none" stroke="black" stroke-dasharray="1,5" d="M1106,-187.11C1106,-187.11 1106,-205.99 1106,-205.99"/>
<polygon fill="black" stroke="black" points="1102.5,-205.99 1106,-215.99 1109.5,-205.99 1102.5,-205.99"/>
</g>
<!-- AngularMaterialModule -->
<g id="node8" class="node">
<title>AngularMaterialModule</title>
<polygon fill="#8dd3c7" stroke="black" points="1341.34,-122 1338.34,-126 1317.34,-126 1314.34,-122 1188.66,-122 1188.66,-86 1341.34,-86 1341.34,-122"/>
<text text-anchor="middle" x="1265" y="-99.8" font-family="Times,serif" font-size="14.00">AngularMaterialModule</text>
</g>
<!-- AngularMaterialModule&#45;&gt;AppModule -->
<g id="edge7" class="edge">
<title>AngularMaterialModule&#45;&gt;AppModule</title>
<path fill="none" stroke="black" d="M1265,-122.19C1265,-137.18 1265,-156 1265,-156 1265,-156 1157.78,-156 1157.78,-156"/>
<polygon fill="black" stroke="black" points="1157.78,-152.5 1147.78,-156 1157.78,-159.5 1157.78,-152.5"/>
</g>
<!-- AppRoutingModule -->
<g id="node9" class="node">
<title>AppRoutingModule</title>
<polygon fill="#8dd3c7" stroke="black" points="1170.27,-122 1167.27,-126 1146.27,-126 1143.27,-122 1041.73,-122 1041.73,-86 1170.27,-86 1170.27,-122"/>
<text text-anchor="middle" x="1106" y="-99.8" font-family="Times,serif" font-size="14.00">AppRoutingModule</text>
</g>
<!-- AppRoutingModule&#45;&gt;AppModule -->
<g id="edge8" class="edge">
<title>AppRoutingModule&#45;&gt;AppModule</title>
<path fill="none" stroke="black" d="M1092.06,-122.11C1092.06,-122.11 1092.06,-140.99 1092.06,-140.99"/>
<polygon fill="black" stroke="black" points="1088.56,-140.99 1092.06,-150.99 1095.56,-140.99 1088.56,-140.99"/>
</g>
<!-- AppRoutingModule&#45;&gt;AppModule -->
<g id="edge9" class="edge">
<title>AppRoutingModule&#45;&gt;AppModule</title>
<path fill="none" stroke="black" d="M1119.94,-122.11C1119.94,-122.11 1119.94,-140.99 1119.94,-140.99"/>
<polygon fill="black" stroke="black" points="1116.44,-140.99 1119.94,-150.99 1123.44,-140.99 1116.44,-140.99"/>
</g>
<!-- DictionaryService -->
<g id="node11" class="node">
<title>DictionaryService</title>
<ellipse fill="#fdb462" stroke="black" cx="2219" cy="-104" rx="81.08" ry="18"/>
<text text-anchor="middle" x="2219" y="-99.8" font-family="Times,serif" font-size="14.00">DictionaryService</text>
</g>
<!-- DictionaryService&#45;&gt;AppModule -->
<g id="edge11" class="edge">
<title>DictionaryService&#45;&gt;AppModule</title>
<path fill="none" stroke="black" d="M2219,-122.32C2219,-145.66 2219,-183 2219,-183 2219,-183 1157.94,-183 1157.94,-183"/>
<polygon fill="black" stroke="black" points="1157.94,-179.5 1147.94,-183 1157.94,-186.5 1157.94,-179.5"/>
</g>
<!-- ErrorMessageService -->
<g id="node12" class="node">
<title>ErrorMessageService</title>
<ellipse fill="#fdb462" stroke="black" cx="2026" cy="-104" rx="94.3" ry="18"/>
<text text-anchor="middle" x="2026" y="-99.8" font-family="Times,serif" font-size="14.00">ErrorMessageService</text>
</g>
<!-- ErrorMessageService&#45;&gt;AppModule -->
<g id="edge12" class="edge">
<title>ErrorMessageService&#45;&gt;AppModule</title>
<path fill="none" stroke="black" d="M2026,-122.29C2026,-144.21 2026,-178 2026,-178 2026,-178 1157.92,-178 1157.92,-178"/>
<polygon fill="black" stroke="black" points="1157.92,-174.5 1147.92,-178 1157.92,-181.5 1157.92,-174.5"/>
</g>
<!-- HttpService -->
<g id="node13" class="node">
<title>HttpService</title>
<ellipse fill="#fdb462" stroke="black" cx="1857" cy="-104" rx="57.32" ry="18"/>
<text text-anchor="middle" x="1857" y="-99.8" font-family="Times,serif" font-size="14.00">HttpService</text>
</g>
<!-- HttpService&#45;&gt;AppModule -->
<g id="edge13" class="edge">
<title>HttpService&#45;&gt;AppModule</title>
<path fill="none" stroke="black" d="M1857,-122.03C1857,-142.77 1857,-174 1857,-174 1857,-174 1157.72,-174 1157.72,-174"/>
<polygon fill="black" stroke="black" points="1157.72,-170.5 1147.72,-174 1157.72,-177.5 1157.72,-170.5"/>
</g>
<!-- ListService -->
<g id="node14" class="node">
<title>ListService</title>
<ellipse fill="#fdb462" stroke="black" cx="1727" cy="-104" rx="55.03" ry="18"/>
<text text-anchor="middle" x="1727" y="-99.8" font-family="Times,serif" font-size="14.00">ListService</text>
</g>
<!-- ListService&#45;&gt;AppModule -->
<g id="edge14" class="edge">
<title>ListService&#45;&gt;AppModule</title>
<path fill="none" stroke="black" d="M1727,-122.11C1727,-141.34 1727,-169 1727,-169 1727,-169 1157.71,-169 1157.71,-169"/>
<polygon fill="black" stroke="black" points="1157.71,-165.5 1147.71,-169 1157.71,-172.5 1157.71,-165.5"/>
</g>
<!-- SearchService -->
<g id="node15" class="node">
<title>SearchService</title>
<ellipse fill="#fdb462" stroke="black" cx="1588" cy="-104" rx="66.03" ry="18"/>
<text text-anchor="middle" x="1588" y="-99.8" font-family="Times,serif" font-size="14.00">SearchService</text>
</g>
<!-- SearchService&#45;&gt;AppModule -->
<g id="edge15" class="edge">
<title>SearchService&#45;&gt;AppModule</title>
<path fill="none" stroke="black" d="M1588,-122.3C1588,-140.27 1588,-165 1588,-165 1588,-165 1157.93,-165 1157.93,-165"/>
<polygon fill="black" stroke="black" points="1157.93,-161.5 1147.93,-165 1157.93,-168.5 1157.93,-161.5"/>
</g>
<!-- StorageService -->
<g id="node16" class="node">
<title>StorageService</title>
<ellipse fill="#fdb462" stroke="black" cx="1434" cy="-104" rx="69.48" ry="18"/>
<text text-anchor="middle" x="1434" y="-99.8" font-family="Times,serif" font-size="14.00">StorageService</text>
</g>
<!-- StorageService&#45;&gt;AppModule -->
<g id="edge16" class="edge">
<title>StorageService&#45;&gt;AppModule</title>
<path fill="none" stroke="black" d="M1434,-122.03C1434,-138.4 1434,-160 1434,-160 1434,-160 1157.87,-160 1157.87,-160"/>
<polygon fill="black" stroke="black" points="1157.87,-156.5 1147.87,-160 1157.87,-163.5 1157.87,-156.5"/>
</g>
</g>
</svg>
