<?xml version="1.0" encoding="UTF-8" standalone="no"?>
<!DOCTYPE svg PUBLIC "-//W3C//DTD SVG 1.1//EN"
 "http://www.w3.org/Graphics/SVG/1.1/DTD/svg11.dtd">
<!-- Generated by graphviz version 2.46.0 (20210119.1425)
 -->
<!-- Title: dependencies Pages: 1 -->
<svg width="4936pt" height="284pt"
 viewBox="0.00 0.00 4936.00 284.00" xmlns="http://www.w3.org/2000/svg" xmlns:xlink="http://www.w3.org/1999/xlink">
<g id="graph0" class="graph" transform="scale(1 1) rotate(0) translate(4 280)">
<title>dependencies</title>
<polygon fill="white" stroke="transparent" points="-4,4 -4,-280 4932,-280 4932,4 -4,4"/>
<text text-anchor="start" x="2443.01" y="-42.4" font-family="sans-serif" font-weight="bold" font-size="14.00">Legend</text>
<polygon fill="#ffffb3" stroke="transparent" points="2230,-10 2230,-30 2250,-30 2250,-10 2230,-10"/>
<text text-anchor="start" x="2253.63" y="-15.4" font-family="sans-serif" font-size="14.00"> &#160;Declarations</text>
<polygon fill="#8dd3c7" stroke="transparent" points="2343,-10 2343,-30 2363,-30 2363,-10 2343,-10"/>
<text text-anchor="start" x="2366.73" y="-15.4" font-family="sans-serif" font-size="14.00"> &#160;Module</text>
<polygon fill="#80b1d3" stroke="transparent" points="2429,-10 2429,-30 2449,-30 2449,-10 2429,-10"/>
<text text-anchor="start" x="2452.78" y="-15.4" font-family="sans-serif" font-size="14.00"> &#160;Bootstrap</text>
<polygon fill="#fdb462" stroke="transparent" points="2526,-10 2526,-30 2546,-30 2546,-10 2526,-10"/>
<text text-anchor="start" x="2549.67" y="-15.4" font-family="sans-serif" font-size="14.00"> &#160;Providers</text>
<polygon fill="#fb8072" stroke="transparent" points="2622,-10 2622,-30 2642,-30 2642,-10 2622,-10"/>
<text text-anchor="start" x="2645.73" y="-15.4" font-family="sans-serif" font-size="14.00"> &#160;Exports</text>
<g id="clust1" class="cluster">
<title>cluster_AppModule</title>
<polygon fill="none" stroke="black" stroke-dasharray="1,5" points="8,-70 8,-268 4920,-268 4920,-70 8,-70"/>
</g>
<g id="clust20" class="cluster">
<title>cluster_AppModule_bootstrap</title>
<polygon fill="none" stroke="black" points="2386,-208 2386,-260 2510,-260 2510,-208 2386,-208"/>
</g>
<g id="clust21" class="cluster">
<title>cluster_AppModule_providers</title>
<polygon fill="none" stroke="black" points="2726,-78 2726,-130 4912,-130 4912,-78 2726,-78"/>
</g>
<g id="clust2" class="cluster">
<title>cluster_AppModule_declarations</title>
<polygon fill="none" stroke="black" points="339,-78 339,-130 2718,-130 2718,-78 339,-78"/>
</g>
<g id="clust18" class="cluster">
<title>cluster_AppModule_imports</title>
<polygon fill="none" stroke="black" points="16,-78 16,-130 331,-130 331,-78 16,-78"/>
</g>
<!-- AdminComponent -->
<g id="node1" class="node">
<title>AdminComponent</title>
<polygon fill="#ffffb3" stroke="black" points="2710.22,-122 2589.78,-122 2589.78,-86 2710.22,-86 2710.22,-122"/>
<text text-anchor="middle" x="2650" y="-99.8" font-family="Times,serif" font-size="14.00">AdminComponent</text>
</g>
<!-- AppModule -->
<g id="node16" class="node">
<title>AppModule</title>
<polygon fill="#8dd3c7" stroke="black" points="2489.66,-187 2486.66,-191 2465.66,-191 2462.66,-187 2406.34,-187 2406.34,-151 2489.66,-151 2489.66,-187"/>
<text text-anchor="middle" x="2448" y="-164.8" font-family="Times,serif" font-size="14.00">AppModule</text>
</g>
<!-- AdminComponent&#45;&gt;AppModule -->
<g id="edge1" class="edge">
<title>AdminComponent&#45;&gt;AppModule</title>
<path fill="none" stroke="black" d="M2650,-122.05C2650,-136.37 2650,-154 2650,-154 2650,-154 2499.85,-154 2499.85,-154"/>
<polygon fill="black" stroke="black" points="2499.85,-150.5 2489.85,-154 2499.85,-157.5 2499.85,-150.5"/>
</g>
<!-- AppComponent -->
<g id="node2" class="node">
<title>AppComponent</title>
<polygon fill="#ffffb3" stroke="black" points="2571.94,-122 2466.06,-122 2466.06,-86 2571.94,-86 2571.94,-122"/>
<text text-anchor="middle" x="2519" y="-99.8" font-family="Times,serif" font-size="14.00">AppComponent</text>
</g>
<!-- AppComponent&#45;&gt;AppModule -->
<g id="edge2" class="edge">
<title>AppComponent&#45;&gt;AppModule</title>
<path fill="none" stroke="black" d="M2478.05,-122.11C2478.05,-122.11 2478.05,-140.99 2478.05,-140.99"/>
<polygon fill="black" stroke="black" points="2474.55,-140.99 2478.05,-150.99 2481.55,-140.99 2474.55,-140.99"/>
</g>
<!-- CustomersComponent -->
<g id="node3" class="node">
<title>CustomersComponent</title>
<polygon fill="#ffffb3" stroke="black" points="2448.71,-122 2307.29,-122 2307.29,-86 2448.71,-86 2448.71,-122"/>
<text text-anchor="middle" x="2378" y="-99.8" font-family="Times,serif" font-size="14.00">CustomersComponent</text>
</g>
<!-- CustomersComponent&#45;&gt;AppModule -->
<g id="edge3" class="edge">
<title>CustomersComponent&#45;&gt;AppModule</title>
<path fill="none" stroke="black" d="M2427.39,-122.11C2427.39,-122.11 2427.39,-140.99 2427.39,-140.99"/>
<polygon fill="black" stroke="black" points="2423.89,-140.99 2427.39,-150.99 2430.89,-140.99 2423.89,-140.99"/>
</g>
<!-- DeleteAccountDialog -->
<g id="node4" class="node">
<title>DeleteAccountDialog</title>
<polygon fill="#ffffb3" stroke="black" points="2289.06,-122 2150.94,-122 2150.94,-86 2289.06,-86 2289.06,-122"/>
<text text-anchor="middle" x="2220" y="-99.8" font-family="Times,serif" font-size="14.00">DeleteAccountDialog</text>
</g>
<!-- DeleteAccountDialog&#45;&gt;AppModule -->
<g id="edge4" class="edge">
<title>DeleteAccountDialog&#45;&gt;AppModule</title>
<path fill="none" stroke="black" d="M2220,-122.05C2220,-136.37 2220,-154 2220,-154 2220,-154 2396.18,-154 2396.18,-154"/>
<polygon fill="black" stroke="black" points="2396.18,-157.5 2406.18,-154 2396.18,-150.5 2396.18,-157.5"/>
</g>
<!-- EditAccountDialog -->
<g id="node5" class="node">
<title>EditAccountDialog</title>
<polygon fill="#ffffb3" stroke="black" points="2133.36,-122 2008.64,-122 2008.64,-86 2133.36,-86 2133.36,-122"/>
<text text-anchor="middle" x="2071" y="-99.8" font-family="Times,serif" font-size="14.00">EditAccountDialog</text>
</g>
<!-- EditAccountDialog&#45;&gt;AppModule -->
<g id="edge5" class="edge">
<title>EditAccountDialog&#45;&gt;AppModule</title>
<path fill="none" stroke="black" d="M2071,-122.19C2071,-137.18 2071,-156 2071,-156 2071,-156 2396.21,-156 2396.21,-156"/>
<polygon fill="black" stroke="black" points="2396.21,-159.5 2406.21,-156 2396.21,-152.5 2396.21,-159.5"/>
</g>
<!-- LoginComponent -->
<g id="node6" class="node">
<title>LoginComponent</title>
<polygon fill="#ffffb3" stroke="black" points="1990.28,-122 1875.72,-122 1875.72,-86 1990.28,-86 1990.28,-122"/>
<text text-anchor="middle" x="1933" y="-99.8" font-family="Times,serif" font-size="14.00">LoginComponent</text>
</g>
<!-- LoginComponent&#45;&gt;AppModule -->
<g id="edge6" class="edge">
<title>LoginComponent&#45;&gt;AppModule</title>
<path fill="none" stroke="black" d="M1933,-122.01C1933,-138.05 1933,-159 1933,-159 1933,-159 2396.29,-159 2396.29,-159"/>
<polygon fill="black" stroke="black" points="2396.29,-162.5 2406.29,-159 2396.29,-155.5 2396.29,-162.5"/>
</g>
<!-- MainComponent -->
<g id="node7" class="node">
<title>MainComponent</title>
<polygon fill="#ffffb3" stroke="black" points="1857.38,-122 1746.62,-122 1746.62,-86 1857.38,-86 1857.38,-122"/>
<text text-anchor="middle" x="1802" y="-99.8" font-family="Times,serif" font-size="14.00">MainComponent</text>
</g>
<!-- MainComponent&#45;&gt;AppModule -->
<g id="edge7" class="edge">
<title>MainComponent&#45;&gt;AppModule</title>
<path fill="none" stroke="black" d="M1802,-122.04C1802,-138.73 1802,-161 1802,-161 1802,-161 2396.11,-161 2396.11,-161"/>
<polygon fill="black" stroke="black" points="2396.11,-164.5 2406.11,-161 2396.11,-157.5 2396.11,-164.5"/>
</g>
<!-- NewAccountDialog -->
<g id="node8" class="node">
<title>NewAccountDialog</title>
<polygon fill="#ffffb3" stroke="black" points="1728.96,-122 1601.04,-122 1601.04,-86 1728.96,-86 1728.96,-122"/>
<text text-anchor="middle" x="1665" y="-99.8" font-family="Times,serif" font-size="14.00">NewAccountDialog</text>
</g>
<!-- NewAccountDialog&#45;&gt;AppModule -->
<g id="edge8" class="edge">
<title>NewAccountDialog&#45;&gt;AppModule</title>
<path fill="none" stroke="black" d="M1665,-122.02C1665,-139.37 1665,-163 1665,-163 1665,-163 2396.18,-163 2396.18,-163"/>
<polygon fill="black" stroke="black" points="2396.18,-166.5 2406.18,-163 2396.18,-159.5 2396.18,-166.5"/>
</g>
<!-- NewISOComponent -->
<g id="node9" class="node">
<title>NewISOComponent</title>
<polygon fill="#ffffb3" stroke="black" points="1583.31,-122 1452.69,-122 1452.69,-86 1583.31,-86 1583.31,-122"/>
<text text-anchor="middle" x="1518" y="-99.8" font-family="Times,serif" font-size="14.00">NewISOComponent</text>
</g>
<!-- NewISOComponent&#45;&gt;AppModule -->
<g id="edge9" class="edge">
<title>NewISOComponent&#45;&gt;AppModule</title>
<path fill="none" stroke="black" d="M1518,-122.27C1518,-140.56 1518,-166 1518,-166 1518,-166 2396.23,-166 2396.23,-166"/>
<polygon fill="black" stroke="black" points="2396.23,-169.5 2406.23,-166 2396.23,-162.5 2396.23,-169.5"/>
</g>
<!-- PreselectionComponent -->
<g id="node10" class="node">
<title>PreselectionComponent</title>
<polygon fill="#ffffb3" stroke="black" points="1434.75,-122 1285.25,-122 1285.25,-86 1434.75,-86 1434.75,-122"/>
<text text-anchor="middle" x="1360" y="-99.8" font-family="Times,serif" font-size="14.00">PreselectionComponent</text>
</g>
<!-- PreselectionComponent&#45;&gt;AppModule -->
<g id="edge10" class="edge">
<title>PreselectionComponent&#45;&gt;AppModule</title>
<path fill="none" stroke="black" d="M1360,-122.17C1360,-141.09 1360,-168 1360,-168 1360,-168 2396.02,-168 2396.02,-168"/>
<polygon fill="black" stroke="black" points="2396.02,-171.5 2406.02,-168 2396.02,-164.5 2396.02,-171.5"/>
</g>
<!-- ResetPasswordAdminDialog -->
<g id="node11" class="node">
<title>ResetPasswordAdminDialog</title>
<polygon fill="#ffffb3" stroke="black" points="1266.74,-122 1089.26,-122 1089.26,-86 1266.74,-86 1266.74,-122"/>
<text text-anchor="middle" x="1178" y="-99.8" font-family="Times,serif" font-size="14.00">ResetPasswordAdminDialog</text>
</g>
<!-- ResetPasswordAdminDialog&#45;&gt;AppModule -->
<g id="edge11" class="edge">
<title>ResetPasswordAdminDialog&#45;&gt;AppModule</title>
<path fill="none" stroke="black" d="M1178,-122.31C1178,-142.15 1178,-171 1178,-171 1178,-171 2396.11,-171 2396.11,-171"/>
<polygon fill="black" stroke="black" points="2396.11,-174.5 2406.11,-171 2396.11,-167.5 2396.11,-174.5"/>
</g>
<!-- ResetPasswordComponent -->
<g id="node12" class="node">
<title>ResetPasswordComponent</title>
<polygon fill="#ffffb3" stroke="black" points="1071.09,-122 904.91,-122 904.91,-86 1071.09,-86 1071.09,-122"/>
<text text-anchor="middle" x="988" y="-99.8" font-family="Times,serif" font-size="14.00">ResetPasswordComponent</text>
</g>
<!-- ResetPasswordComponent&#45;&gt;AppModule -->
<g id="edge12" class="edge">
<title>ResetPasswordComponent&#45;&gt;AppModule</title>
<path fill="none" stroke="black" d="M988,-122.13C988,-142.57 988,-173 988,-173 988,-173 2396.27,-173 2396.27,-173"/>
<polygon fill="black" stroke="black" points="2396.27,-176.5 2406.27,-173 2396.27,-169.5 2396.27,-176.5"/>
</g>
<!-- ResetPasswordUserDialog -->
<g id="node13" class="node">
<title>ResetPasswordUserDialog</title>
<polygon fill="#ffffb3" stroke="black" points="886.78,-122 721.22,-122 721.22,-86 886.78,-86 886.78,-122"/>
<text text-anchor="middle" x="804" y="-99.8" font-family="Times,serif" font-size="14.00">ResetPasswordUserDialog</text>
</g>
<!-- ResetPasswordUserDialog&#45;&gt;AppModule -->
<g id="edge13" class="edge">
<title>ResetPasswordUserDialog&#45;&gt;AppModule</title>
<path fill="none" stroke="black" d="M804,-122.28C804,-143.32 804,-175 804,-175 804,-175 2396.13,-175 2396.13,-175"/>
<polygon fill="black" stroke="black" points="2396.13,-178.5 2406.13,-175 2396.13,-171.5 2396.13,-178.5"/>
</g>
<!-- SendCustomerConfirmationDialog -->
<g id="node14" class="node">
<title>SendCustomerConfirmationDialog</title>
<polygon fill="#ffffb3" stroke="black" points="702.97,-122 491.03,-122 491.03,-86 702.97,-86 702.97,-122"/>
<text text-anchor="middle" x="597" y="-99.8" font-family="Times,serif" font-size="14.00">SendCustomerConfirmationDialog</text>
</g>
<!-- SendCustomerConfirmationDialog&#45;&gt;AppModule -->
<g id="edge14" class="edge">
<title>SendCustomerConfirmationDialog&#45;&gt;AppModule</title>
<path fill="none" stroke="black" d="M597,-122.29C597,-144.21 597,-178 597,-178 597,-178 2396.3,-178 2396.3,-178"/>
<polygon fill="black" stroke="black" points="2396.3,-181.5 2406.3,-178 2396.3,-174.5 2396.3,-181.5"/>
</g>
<!-- SettingsComponent -->
<g id="node15" class="node">
<title>SettingsComponent</title>
<polygon fill="#ffffb3" stroke="black" points="473.45,-122 346.55,-122 346.55,-86 473.45,-86 473.45,-122"/>
<text text-anchor="middle" x="410" y="-99.8" font-family="Times,serif" font-size="14.00">SettingsComponent</text>
</g>
<!-- SettingsComponent&#45;&gt;AppModule -->
<g id="edge15" class="edge">
<title>SettingsComponent&#45;&gt;AppModule</title>
<path fill="none" stroke="black" d="M410,-122.01C410,-144.49 410,-180 410,-180 410,-180 2395.9,-180 2395.9,-180"/>
<polygon fill="black" stroke="black" points="2395.9,-183.5 2405.9,-180 2395.9,-176.5 2395.9,-183.5"/>
</g>
<!-- AppComponent  -->
<g id="node19" class="node">
<title>AppComponent </title>
<polygon fill="#80b1d3" stroke="black" points="2502.44,-252 2393.56,-252 2393.56,-216 2502.44,-216 2502.44,-252"/>
<text text-anchor="middle" x="2448" y="-229.8" font-family="Times,serif" font-size="14.00">AppComponent </text>
</g>
<!-- AppModule&#45;&gt;AppComponent  -->
<g id="edge18" class="edge">
<title>AppModule&#45;&gt;AppComponent </title>
<path fill="none" stroke="black" stroke-dasharray="1,5" d="M2448,-187.11C2448,-187.11 2448,-205.99 2448,-205.99"/>
<polygon fill="black" stroke="black" points="2444.5,-205.99 2448,-215.99 2451.5,-205.99 2444.5,-205.99"/>
</g>
<!-- AngularMaterialModule -->
<g id="node17" class="node">
<title>AngularMaterialModule</title>
<polygon fill="#8dd3c7" stroke="black" points="323.34,-122 320.34,-126 299.34,-126 296.34,-122 170.66,-122 170.66,-86 323.34,-86 323.34,-122"/>
<text text-anchor="middle" x="247" y="-99.8" font-family="Times,serif" font-size="14.00">AngularMaterialModule</text>
</g>
<!-- AngularMaterialModule&#45;&gt;AppModule -->
<g id="edge16" class="edge">
<title>AngularMaterialModule&#45;&gt;AppModule</title>
<path fill="none" stroke="black" d="M247,-122.32C247,-145.66 247,-183 247,-183 247,-183 2396,-183 2396,-183"/>
<polygon fill="black" stroke="black" points="2396,-186.5 2406,-183 2396,-179.5 2396,-186.5"/>
</g>
<!-- AppRoutingModule -->
<g id="node18" class="node">
<title>AppRoutingModule</title>
<polygon fill="#8dd3c7" stroke="black" points="152.27,-122 149.27,-126 128.27,-126 125.27,-122 23.73,-122 23.73,-86 152.27,-86 152.27,-122"/>
<text text-anchor="middle" x="88" y="-99.8" font-family="Times,serif" font-size="14.00">AppRoutingModule</text>
</g>
<!-- AppRoutingModule&#45;&gt;AppModule -->
<g id="edge17" class="edge">
<title>AppRoutingModule&#45;&gt;AppModule</title>
<path fill="none" stroke="black" d="M88,-122.38C88,-146.28 88,-185 88,-185 88,-185 2396.29,-185 2396.29,-185"/>
<polygon fill="black" stroke="black" points="2396.29,-188.5 2406.29,-185 2396.29,-181.5 2396.29,-188.5"/>
</g>
<!-- AccountService -->
<g id="node20" class="node">
<title>AccountService</title>
<ellipse fill="#fdb462" stroke="black" cx="4831" cy="-104" rx="72.91" ry="18"/>
<text text-anchor="middle" x="4831" y="-99.8" font-family="Times,serif" font-size="14.00">AccountService</text>
</g>
<!-- AccountService&#45;&gt;AppModule -->
<g id="edge19" class="edge">
<title>AccountService&#45;&gt;AppModule</title>
<path fill="none" stroke="black" d="M4831,-122.38C4831,-146.28 4831,-185 4831,-185 4831,-185 2499.87,-185 2499.87,-185"/>
<polygon fill="black" stroke="black" points="2499.87,-181.5 2489.87,-185 2499.87,-188.5 2499.87,-181.5"/>
</g>
<!-- AuthService -->
<g id="node21" class="node">
<title>AuthService</title>
<ellipse fill="#fdb462" stroke="black" cx="4681" cy="-104" rx="59.11" ry="18"/>
<text text-anchor="middle" x="4681" y="-99.8" font-family="Times,serif" font-size="14.00">AuthService</text>
</g>
<!-- AuthService&#45;&gt;AppModule -->
<g id="edge20" class="edge">
<title>AuthService&#45;&gt;AppModule</title>
<path fill="none" stroke="black" d="M4681,-122.32C4681,-145.66 4681,-183 4681,-183 4681,-183 2500.12,-183 2500.12,-183"/>
<polygon fill="black" stroke="black" points="2500.12,-179.5 2490.12,-183 2500.12,-186.5 2500.12,-179.5"/>
</g>
<!-- CustomerService -->
<g id="node22" class="node">
<title>CustomerService</title>
<ellipse fill="#fdb462" stroke="black" cx="4526" cy="-104" rx="77.58" ry="18"/>
<text text-anchor="middle" x="4526" y="-99.8" font-family="Times,serif" font-size="14.00">CustomerService</text>
</g>
<!-- CustomerService&#45;&gt;AppModule -->
<g id="edge21" class="edge">
<title>CustomerService&#45;&gt;AppModule</title>
<path fill="none" stroke="black" d="M4526,-122.01C4526,-144.49 4526,-180 4526,-180 4526,-180 2499.98,-180 2499.98,-180"/>
<polygon fill="black" stroke="black" points="2499.98,-176.5 2489.98,-180 2499.98,-183.5 2499.98,-176.5"/>
</g>
<!-- DateService -->
<g id="node23" class="node">
<title>DateService</title>
<ellipse fill="#fdb462" stroke="black" cx="4372" cy="-104" rx="58.44" ry="18"/>
<text text-anchor="middle" x="4372" y="-99.8" font-family="Times,serif" font-size="14.00">DateService</text>
</g>
<!-- DateService&#45;&gt;AppModule -->
<g id="edge22" class="edge">
<title>DateService&#45;&gt;AppModule</title>
<path fill="none" stroke="black" d="M4372,-122.29C4372,-144.21 4372,-178 4372,-178 4372,-178 2499.97,-178 2499.97,-178"/>
<polygon fill="black" stroke="black" points="2499.97,-174.5 2489.97,-178 2499.97,-181.5 2499.97,-174.5"/>
</g>
<!-- DictionaryService -->
<g id="node24" class="node">
<title>DictionaryService</title>
<ellipse fill="#fdb462" stroke="black" cx="4214" cy="-104" rx="81.08" ry="18"/>
<text text-anchor="middle" x="4214" y="-99.8" font-family="Times,serif" font-size="14.00">DictionaryService</text>
</g>
<!-- DictionaryService&#45;&gt;AppModule -->
<g id="edge23" class="edge">
<title>DictionaryService&#45;&gt;AppModule</title>
<path fill="none" stroke="black" d="M4214,-122.28C4214,-143.32 4214,-175 4214,-175 4214,-175 2499.91,-175 2499.91,-175"/>
<polygon fill="black" stroke="black" points="2499.91,-171.5 2489.91,-175 2499.91,-178.5 2499.91,-171.5"/>
</g>
<!-- ErrorMessageService -->
<g id="node25" class="node">
<title>ErrorMessageService</title>
<ellipse fill="#fdb462" stroke="black" cx="4021" cy="-104" rx="94.3" ry="18"/>
<text text-anchor="middle" x="4021" y="-99.8" font-family="Times,serif" font-size="14.00">ErrorMessageService</text>
</g>
<!-- ErrorMessageService&#45;&gt;AppModule -->
<g id="edge24" class="edge">
<title>ErrorMessageService&#45;&gt;AppModule</title>
<path fill="none" stroke="black" d="M4021,-122.13C4021,-142.57 4021,-173 4021,-173 4021,-173 2499.67,-173 2499.67,-173"/>
<polygon fill="black" stroke="black" points="2499.67,-169.5 2489.67,-173 2499.67,-176.5 2499.67,-169.5"/>
</g>
<!-- FormValidationService -->
<g id="node26" class="node">
<title>FormValidationService</title>
<ellipse fill="#fdb462" stroke="black" cx="3807" cy="-104" rx="101.86" ry="18"/>
<text text-anchor="middle" x="3807" y="-99.8" font-family="Times,serif" font-size="14.00">FormValidationService</text>
</g>
<!-- FormValidationService&#45;&gt;AppModule -->
<g id="edge25" class="edge">
<title>FormValidationService&#45;&gt;AppModule</title>
<path fill="none" stroke="black" d="M3807,-122.31C3807,-142.15 3807,-171 3807,-171 3807,-171 2499.79,-171 2499.79,-171"/>
<polygon fill="black" stroke="black" points="2499.79,-167.5 2489.79,-171 2499.79,-174.5 2499.79,-167.5"/>
</g>
<!-- HttpService -->
<g id="node27" class="node">
<title>HttpService</title>
<ellipse fill="#fdb462" stroke="black" cx="3630" cy="-104" rx="57.32" ry="18"/>
<text text-anchor="middle" x="3630" y="-99.8" font-family="Times,serif" font-size="14.00">HttpService</text>
</g>
<!-- HttpService&#45;&gt;AppModule -->
<g id="edge26" class="edge">
<title>HttpService&#45;&gt;AppModule</title>
<path fill="none" stroke="black" d="M3630,-122.17C3630,-141.09 3630,-168 3630,-168 3630,-168 2499.72,-168 2499.72,-168"/>
<polygon fill="black" stroke="black" points="2499.72,-164.5 2489.72,-168 2499.72,-171.5 2499.72,-164.5"/>
</g>
<!-- JSONValidationService -->
<g id="node28" class="node">
<title>JSONValidationService</title>
<ellipse fill="#fdb462" stroke="black" cx="3451" cy="-104" rx="103.65" ry="18"/>
<text text-anchor="middle" x="3451" y="-99.8" font-family="Times,serif" font-size="14.00">JSONValidationService</text>
</g>
<!-- JSONValidationService&#45;&gt;AppModule -->
<g id="edge27" class="edge">
<title>JSONValidationService&#45;&gt;AppModule</title>
<path fill="none" stroke="black" d="M3451,-122.27C3451,-140.56 3451,-166 3451,-166 3451,-166 2499.82,-166 2499.82,-166"/>
<polygon fill="black" stroke="black" points="2499.82,-162.5 2489.82,-166 2499.82,-169.5 2499.82,-162.5"/>
</g>
<!-- ListService -->
<g id="node29" class="node">
<title>ListService</title>
<ellipse fill="#fdb462" stroke="black" cx="3274" cy="-104" rx="55.03" ry="18"/>
<text text-anchor="middle" x="3274" y="-99.8" font-family="Times,serif" font-size="14.00">ListService</text>
</g>
<!-- ListService&#45;&gt;AppModule -->
<g id="edge28" class="edge">
<title>ListService&#45;&gt;AppModule</title>
<path fill="none" stroke="black" d="M3274,-122.02C3274,-139.37 3274,-163 3274,-163 3274,-163 2499.81,-163 2499.81,-163"/>
<polygon fill="black" stroke="black" points="2499.81,-159.5 2489.81,-163 2499.81,-166.5 2499.81,-159.5"/>
</g>
<!-- RecaptchaService -->
<g id="node30" class="node">
<title>RecaptchaService</title>
<ellipse fill="#fdb462" stroke="black" cx="3121" cy="-104" rx="80.41" ry="18"/>
<text text-anchor="middle" x="3121" y="-99.8" font-family="Times,serif" font-size="14.00">RecaptchaService</text>
</g>
<!-- RecaptchaService&#45;&gt;AppModule -->
<g id="edge29" class="edge">
<title>RecaptchaService&#45;&gt;AppModule</title>
<path fill="none" stroke="black" d="M3121,-122.04C3121,-138.73 3121,-161 3121,-161 3121,-161 2499.84,-161 2499.84,-161"/>
<polygon fill="black" stroke="black" points="2499.84,-157.5 2489.84,-161 2499.84,-164.5 2499.84,-157.5"/>
</g>
<!-- SearchService -->
<g id="node31" class="node">
<title>SearchService</title>
<ellipse fill="#fdb462" stroke="black" cx="2957" cy="-104" rx="66.03" ry="18"/>
<text text-anchor="middle" x="2957" y="-99.8" font-family="Times,serif" font-size="14.00">SearchService</text>
</g>
<!-- SearchService&#45;&gt;AppModule -->
<g id="edge30" class="edge">
<title>SearchService&#45;&gt;AppModule</title>
<path fill="none" stroke="black" d="M2957,-122.01C2957,-138.05 2957,-159 2957,-159 2957,-159 2500.09,-159 2500.09,-159"/>
<polygon fill="black" stroke="black" points="2500.09,-155.5 2490.09,-159 2500.09,-162.5 2500.09,-155.5"/>
</g>
<!-- StorageService -->
<g id="node32" class="node">
<title>StorageService</title>
<ellipse fill="#fdb462" stroke="black" cx="2803" cy="-104" rx="69.48" ry="18"/>
<text text-anchor="middle" x="2803" y="-99.8" font-family="Times,serif" font-size="14.00">StorageService</text>
</g>
<!-- StorageService&#45;&gt;AppModule -->
<g id="edge31" class="edge">
<title>StorageService&#45;&gt;AppModule</title>
<path fill="none" stroke="black" d="M2803,-122.19C2803,-137.18 2803,-156 2803,-156 2803,-156 2499.77,-156 2499.77,-156"/>
<polygon fill="black" stroke="black" points="2499.77,-152.5 2489.77,-156 2499.77,-159.5 2499.77,-152.5"/>
</g>
</g>
</svg>
